<svg id="Camada_1" data-name="Camada 1" xmlns="http://www.w3.org/2000/svg" viewBox="0 0 302.41 125.74"><defs><style>.cls-1{fill:#fb0;}</style></defs><path class="cls-1" d="M294.34,53.88H338c.8,0,.83,0,.77.84-.11,1.26-.2,2.53-.31,3.79-.13,1.58-.28,3.16-.42,4.74-.1,1.11-.18,2.22-.28,3.32-.14,1.64-.3,3.28-.44,4.92-.1,1.09-.18,2.18-.28,3.26q-.27,3.15-.56,6.28c-.13,1.54-.26,3.09-.4,4.63s-.29,3.2-.43,4.8c-.09.94-.17,1.89-.25,2.84-.2,2.21-.4,4.43-.59,6.64-.14,1.58-.26,3.16-.4,4.74-.18,2-.37,3.95-.55,5.93-.14,1.56-.26,3.12-.4,4.68-.18,2-.37,3.95-.55,5.92-.14,1.53-.26,3.05-.39,4.57-.19,2-.37,4.07-.56,6.1-.13,1.47-.26,2.93-.4,4.39-.18,2-.37,4-.56,6-.05.53-.13,1.06-.14,1.6a.81.81,0,0,1-.56.81c-.48.19-.95.4-1.44.56-2.7.88-5.44,1.63-8.17,2.4q-5.93,1.67-11.86,3.28c-4.75,1.31-9.49,2.62-14.25,3.83a2,2,0,0,1-1.06,0c-4.5-1.2-9-2.45-13.47-3.7l-18-5c-1.24-.34-2.48-.7-3.72-1-.31-.09-.46-.2-.49-.55-.08-1.11-.2-2.21-.3-3.32q-.3-3.14-.58-6.28c-.13-1.48-.25-3-.39-4.44s-.29-3.24-.44-4.86c-.09-1-.17-2-.26-3l-.57-6.28-.27-3.09c-.19-2.11-.39-4.22-.58-6.34-.13-1.46-.24-2.92-.38-4.38-.14-1.64-.3-3.28-.45-4.92-.13-1.46-.25-2.92-.38-4.39l-.57-6.34c-.13-1.42-.25-2.84-.38-4.26-.15-1.72-.31-3.44-.46-5.16-.13-1.54-.25-3.08-.39-4.62s-.3-3.2-.44-4.8c-.09-1-.17-2.06-.26-3.08-.19-2.2-.4-4.39-.57-6.59-.09-1.24-.26-2.48-.26-3.73,0-.81,0-.7.72-.7h43.74Zm2.18,11.51c-6.61,0-13.23-.09-19.84,0-.92,0-1.83.07-2.74.12-.59,0-.64.09-.68.67,0,.23,0,.47,0,.71-.37,3-.6,6-.9,9-.21,2-.35,4-.53,6-.26,2.87-.53,5.73-.79,8.59q-.3,3.39-.59,6.76-.36,4.15-.7,8.3c-.06.83-.06.83.75.83l36.66,0h.3c.41,0,.44,0,.38.45-.1.73-.18,1.45-.26,2.18-.22,2-.36,4-.56,6-.15,1.62-.33,3.24-.49,4.85a.84.84,0,0,1-.69.82c-1.6.48-3.2.93-4.82,1.36-2.18.57-4.36,1.19-6.58,1.64a1.77,1.77,0,0,1-.76,0c-3.84-.92-7.63-2-11.44-3a.46.46,0,0,1-.4-.49c-.15-1.9-.32-3.8-.49-5.69-.07-.79-.16-1.58-.23-2.37,0-.24-.11-.37-.36-.36s-.24,0-.36,0h-9.95c-.12,0-.24,0-.36,0s-.34.08-.34.31,0,.4,0,.59c.07,1.17.13,2.34.22,3.51.07,1,.16,1.94.25,2.9.18,1.8.37,3.59.56,5.39.15,1.42.33,2.83.54,4.25a1,1,0,0,0,.82.91c7,2.07,14,4,21,5.91a3.37,3.37,0,0,0,1.81,0c5.95-1.56,11.88-3.18,17.78-4.92,1.31-.39,2.62-.78,3.92-1.22a.61.61,0,0,0,.51-.61c0-.6.14-1.18.2-1.78.14-1.34.27-2.68.4-4,.15-1.52.29-3,.43-4.56s.26-3,.4-4.45c.14-1.64.29-3.28.44-4.92s.27-3,.41-4.57.28-3,.42-4.44.28-2.84.43-4.26c.05-.46,0-.55-.48-.61s-1-.1-1.49-.11c-2.36,0-4.72-.07-7.09-.08-5.9,0-11.8,0-17.7,0-3.53,0-7.07,0-10.6,0h-.48c-.19,0-.3-.08-.28-.29s0-.59.05-.89c.18-1.93.37-3.87.55-5.8.14-1.46.25-2.93.4-4.39.18-1.79.38-3.59.56-5.38.06-.53.07-.56.61-.58.75,0,1.51,0,2.26-.06,1.73,0,3.45-.13,5.18-.17,1,0,2.05,0,3.08,0,1.47.12,2.94.06,4.41.11q3.21.12,6.42.31c.52,0,1,.14,1.54.18.35,0,.46.21.5.53.11,1.11.25,2.21.37,3.32.25,2.18.48,4.37.61,6.57,0,.18,0,.36.05.54a.4.4,0,0,0,.37.39,5.48,5.48,0,0,0,1.07.12l9.65,0a1.08,1.08,0,0,1,.18,0c.23,0,.33-.1.3-.32s-.08-.71-.11-1.07c-.14-1.46-.27-2.92-.4-4.39s-.3-3.2-.44-4.8-.27-3-.4-4.5-.29-3.28-.44-4.92c-.11-1.25-.24-2.49-.33-3.74,0-.33-.19-.39-.45-.39l-1.07,0Z" transform="translate(-36.35 -29.13)"/><path class="cls-1" d="M302,41.38a3.18,3.18,0,0,0-.55-.73c-1.75-2-3.57-3.94-5.37-5.9l-.56-.61c-.32-.35-.78-.64-.92-1.07a4.79,4.79,0,0,1-.05-1.42V29.74c0-.44,0-.44.47-.45h14.48c.12,0,.24,0,.36,0s.31.07.31.3c0,1.29,0,2.59,0,3.88,0,.36-.23.3-.43.3l-5.6.12H303a.82.82,0,0,0,.29.51c2.26,2.42,4.51,4.85,6.78,7.27a1.41,1.41,0,0,1,.44,1.1c0,.89,0,1.79,0,2.68,0,.64.14.62-.65.62h-15c-.19,0-.28-.06-.28-.27q0-2,0-3.93c0-.31.18-.3.39-.3h3.15c1.08,0,2.15,0,3.22-.07A1.27,1.27,0,0,0,302,41.38Z" transform="translate(-36.35 -29.13)"/><path class="cls-1" d="M291.91,29.36v7.31q0,4.35,0,8.72v.36c0,.21-.06.34-.3.32H278.4c-.24,0-.3-.1-.3-.32,0-.61,0-1.23,0-1.85V40.81c0-.42,0-.43.43-.43h7c.81,0,.71.06.71-.69V30c0-.14,0-.28,0-.41s0-.35.29-.33c0,0,0,0,.06,0h5.18A.49.49,0,0,1,291.91,29.36Z" transform="translate(-36.35 -29.13)"/><path class="cls-1" d="M36.35,54.19v-.36l.4,0H125.1c.21,0,.26.06.23.26-.06.6-.11,1.2-.16,1.8l-.45,5c-.18,2-.36,4-.53,6-.16,1.69-.3,3.38-.45,5.07l-.54,5.92c-.15,1.69-.29,3.38-.45,5.07-.17,1.94-.35,3.88-.52,5.83s-.34,3.88-.52,5.83-.35,3.9-.53,5.86c-.15,1.71-.29,3.42-.45,5.13q-.28,3.26-.59,6.53l-.51,5.83c-.2,2.18-.4,4.35-.59,6.53l-.51,5.83-.66,7.2c-.2,2.25-.41,4.5-.59,6.75a.48.48,0,0,1-.43.52q-7.48,2.05-14.95,4.14l-17.81,4.94c-1.07.29-2.14.6-3.21.91H80.7a5.34,5.34,0,0,0-1-.3L45.42,145c-.31-.09-.71-.09-.91-.29s-.11-.62-.14-1v0l-.54-5.95-.45-5.07q-.26-2.94-.53-5.89l-.45-5.12q-.26-2.94-.53-5.86l-.45-5.13q-.26-3-.53-5.92l-.45-5.1c-.18-2-.35-3.91-.53-5.86l-.45-5.13c-.19-2.18-.39-4.35-.59-6.53l-.51-5.83c-.2-2.18-.4-4.35-.59-6.53s-.38-4.36-.58-6.53c-.22-2.49-.43-5-.66-7.45A12.39,12.39,0,0,0,36.35,54.19ZM80.81,72.42H53.37a2.09,2.09,0,0,1-.25,0c-.16,0-.21,0-.19.21.15,1.6.29,3.19.44,4.79.17,1.92.36,3.84.52,5.77,0,.3.09.38.4.38h41.8a2.08,2.08,0,0,0,.25,0c.14,0,.17,0,.15.18s0,.55-.08.82c-.29,3.35-.59,6.7-.87,10.05,0,.28-.11.36-.4.36h-40c-.16,0-.2.06-.18.2,0,.31.05.63.08.95.16,1.74.32,3.47.47,5.21.14,1.48.28,3,.4,4.43,0,.29.11.36.4.36H94c.52,0,.52,0,.48.52-.18,1.93-.36,3.87-.53,5.8q-.36,3.93-.69,7.88a.3.3,0,0,1-.27.3l-2.16.58-9.78,2.64a.73.73,0,0,1-.44,0l-12-3.25c-.18,0-.22-.12-.24-.29-.24-2.8-.49-5.6-.73-8.39,0-.19-.07-.27-.28-.27H56.65c-.2,0-.23.06-.22.25.15,1.45.28,2.91.4,4.36.18,2,.35,3.91.52,5.87q.3,3.34.59,6.71c0,.26.13.34.35.4l22.29,6.19a.87.87,0,0,0,.48,0l2.44-.68,19.88-5.5a.37.37,0,0,0,.31-.37c.08-1,.17-2,.26-3l.45-5.07q.25-3,.53-5.92l.45-5.07c.17-1.94.35-3.89.53-5.83s.33-3.89.51-5.83q.31-3.57.65-7.14l.51-5.86q.3-3.27.59-6.53c.18-1.95.34-3.89.52-5.84,0-.37,0-.37-.34-.37H80.81Z" transform="translate(-36.35 -29.13)"/><path class="cls-1" d="M87,29.17a.53.53,0,0,0,0,.33c0,1.42,0,2.84,0,4.26,0,.24,0,.32-.31.32H79.44c-.25,0-.32,0-.32.31,0,.67,0,.68.69.68h6.87c.26,0,.31.07.31.32,0,3.56,0,7.11,0,10.67,0,.23,0,.31-.3.31H73.78c-.24,0-.3-.06-.3-.3,0-1.53,0-3,0-4.57,0-.25.08-.3.31-.3h7.27c.22,0,.29,0,.29-.27,0-.71,0-.71-.72-.71H73.8c-.26,0-.32-.06-.32-.31q0-5.2,0-10.4c0-.11,0-.22,0-.33Z" transform="translate(-36.35 -29.13)"/><path class="cls-1" d="M103.21,29.17c-.07.1,0,.22,0,.33q0,2.13,0,4.26c0,.24,0,.32-.31.32H95.63c-.25,0-.32,0-.31.31,0,.67,0,.68.68.68h6.87c.26,0,.31.07.31.32,0,3.56,0,7.11,0,10.67,0,.23,0,.31-.29.31H90c-.24,0-.31-.06-.31-.3,0-1.53,0-3,0-4.57,0-.25.08-.3.31-.3h7.27c.22,0,.29,0,.29-.27,0-.71,0-.71-.71-.71H90c-.26,0-.32-.06-.32-.31q0-5.2,0-10.4c0-.11,0-.22,0-.33Z" transform="translate(-36.35 -29.13)"/><path class="cls-1" d="M70.82,29.17a.61.61,0,0,0,0,.33c0,1.65,0,3.31,0,5,0,.27,0,.36-.34.36-2.41,0-4.81,0-7.21,0-.25,0-.32.05-.32.31,0,1.68,0,3.36,0,5,0,.25,0,.32.31.32h7.24c.25,0,.32,0,.32.31,0,1.69,0,3.37,0,5.06,0,.24-.07.28-.29.28H57.6c-.26,0-.31-.07-.31-.32,0-5.42,0-10.83,0-16.25a.87.87,0,0,0,0-.36Z" transform="translate(-36.35 -29.13)"/><path class="cls-1" d="M187.47,154.77c-.55-.17-1.08-.35-1.63-.5l-19.63-5.43-14.58-4c-.35-.09-.45-.24-.48-.6-.11-1.5-.26-3-.4-4.48-.11-1.24-.21-2.48-.32-3.73s-.24-2.56-.35-3.84l-.33-3.72c-.11-1.28-.23-2.56-.35-3.84s-.21-2.44-.32-3.66-.24-2.63-.35-3.94l-.33-3.75c-.11-1.27-.23-2.54-.35-3.81s-.21-2.46-.32-3.69-.24-2.59-.35-3.88l-.33-3.72c-.11-1.28-.23-2.56-.34-3.84l-.27-3c-.11-1.29-.23-2.59-.35-3.88s-.21-2.48-.33-3.72-.23-2.56-.34-3.84l-.27-3c-.11-1.29-.23-2.58-.35-3.88-.09-1-.17-2-.26-3-.12-1.3-.24-2.6-.35-3.9l-.33-3.69c-.11-1.29-.23-2.58-.34-3.87s-.22-2.49-.33-3.73c0-.29-.05-.58-.07-.89h88.94c0,.38-.05.75-.08,1.12l-.42,4.69c-.14,1.49-.28,3-.41,4.46l-.39,4.48c-.13,1.49-.27,3-.41,4.45-.11,1.27-.21,2.53-.33,3.79-.13,1.48-.27,3-.4,4.45l-.33,3.78c-.11,1.26-.23,2.52-.35,3.79s-.21,2.52-.33,3.78-.23,2.52-.34,3.78l-.33,3.72c-.11,1.28-.23,2.56-.34,3.85s-.22,2.5-.33,3.75-.23,2.54-.35,3.81l-.27,3c-.11,1.28-.23,2.56-.34,3.84L226,122.2c-.12,1.28-.23,2.56-.35,3.84l-.33,3.75c-.11,1.27-.23,2.54-.34,3.81l-.27,3c-.11,1.3-.23,2.59-.35,3.88s-.23,2.5-.32,3.75c0,.28-.09.41-.37.49l-18.25,5-17.51,4.85a1.6,1.6,0,0,0-.3.13ZM171.9,83.56h42.34c.17,0,.23-.06.25-.23,0-.71.12-1.42.19-2.13.12-1.24.24-2.48.35-3.72.1-1,.19-2,.29-3,.06-.68.11-1.37.18-2.08H159.61a3.1,3.1,0,0,0,0,.44c.13,1.47.27,2.93.4,4.39l.39,4.4c.15,1.7.31,3.39.47,5.09.13,1.47.25,2.93.39,4.4.15,1.68.31,3.37.46,5.06.14,1.47.26,3,.39,4.42.16,1.7.33,3.4.47,5.1,0,.29.08.39.4.39l25,0c4.28,0,8.57,0,12.85,0h.43c-.12,1.32-.24,2.58-.35,3.84-.13,1.48-.25,3-.38,4.45-.18,1.93-.37,3.86-.53,5.79,0,.24-.1.35-.33.41l-11.88,3.18a.85.85,0,0,1-.42,0l-12-3.2a.27.27,0,0,1-.25-.28c-.09-1-.19-2.11-.28-3.17-.14-1.5-.26-3-.4-4.52,0-.33-.07-.66-.1-1H163.13c0,.47.07.92.11,1.37.12,1.28.24,2.56.35,3.84l.33,3.69c.13,1.5.27,3,.41,4.49.11,1.29.24,2.58.35,3.87a.3.3,0,0,0,.28.32l2,.57,20.31,5.66a.69.69,0,0,0,.35,0l4.09-1.13,18.35-5.08a.4.4,0,0,0,.34-.43c0-.34,0-.67.07-1,.1-1,.19-2.11.29-3.17s.17-2,.26-3,.2-2.12.29-3.17l.27-3c.09-1.06.19-2.11.28-3.17l.27-3c.09-1,.19-2.11.29-3.16s.17-2,.26-3,.19-2.11.29-3.17.19-2.05.28-3.08c.06-.67.11-1.34.17-2.06h-.55l-39.44,0h-.25a.48.48,0,0,0-.12,0c-.15,0-.21-.05-.23-.21-.09-1.12-.2-2.24-.3-3.36l-.33-3.66c-.11-1.26-.23-2.52-.34-3.78C171.89,83.81,171.9,83.7,171.9,83.56Z" transform="translate(-36.35 -29.13)"/><path class="cls-1" d="M207.53,29.13v2.24q0,7.14,0,14.29V46H201.9V37.8l-.07,0-3.88,6c-1.32-2-2.6-4-3.89-6l-.06,0V46h-5.55V29.13h6a.84.84,0,0,0,.08.19L197.91,35a.74.74,0,0,0,.09.12.81.81,0,0,1,.08-.12l3.43-5.63a2,2,0,0,0,.07-.19Z" transform="translate(-36.35 -29.13)"/><path class="cls-1" d="M167.84,29.13c0,.1,0,.2,0,.31V46h-5.64v-5.6h-5.15V46h-5.68c0-.1,0-.19,0-.29q0-8.18,0-16.34c0-.1,0-.19,0-.28H157a1.1,1.1,0,0,0,0,.18v5.18a1.49,1.49,0,0,0,0,.21h5.17V30.48c0-.45,0-.9,0-1.35Z" transform="translate(-36.35 -29.13)"/><path class="cls-1" d="M186,29.13c0,.44,0,.88,0,1.32,0,1.32,0,2.63,0,3.95v.37h-5V46.05h-5.63V34.79h-5V29.13Z" transform="translate(-36.35 -29.13)"/><path class="cls-1" d="M216,29.13V40.47h8v5.58h-13.6c0-.09,0-.16,0-.24V29.28c0-.05,0-.1,0-.15Z" transform="translate(-36.35 -29.13)"/></svg>