<svg id="Camada_1" data-name="Camada 1" xmlns="http://www.w3.org/2000/svg" viewBox="0 0 216.59 86.02"><defs><style>.cls-1,.cls-2{fill:#fb0;}.cls-2{fill-rule:evenodd;}</style></defs><path class="cls-1" d="M51.7,115.32l4.51,0c.72,0,1.09.32,1.09.94v3.41H52.79c-.72,0-1.09-.31-1.09-.93v-1.09c0-.62.37-.93,1.09-.93h3.27v-.31a.13.13,0,0,0-.15-.15H51.7Zm1.4,2.31a.14.14,0,0,0-.15.16v.78a.13.13,0,0,0,.15.15h3v-1.09Z" transform="translate(-51.7 -47.65)"/><path class="cls-1" d="M61.44,118.26h-1.9v1.39H58.3V115.3h4.5a1,1,0,0,1,1.09,1.09v.93a.86.86,0,0,1-.91.93l1.22,1.4H62.65Zm-1.9-.94h3c.11,0,.16,0,.16-.15v-.77a.14.14,0,0,0-.16-.16h-3Z" transform="translate(-51.7 -47.65)"/><path class="cls-1" d="M69.86,115.3v.94H68v3.41H66.76v-3.41H64.89v-.94Z" transform="translate(-51.7 -47.65)"/><path class="cls-1" d="M75.44,119.65c-.72,0-1.09-.31-1.09-.93v-2.48c0-.62.37-.94,1.09-.94h3.42c.72,0,1.09.32,1.09.94v2.48q0,.93-1.08.93Zm.31-3.41c-.1,0-.15.05-.15.16v2.17a.13.13,0,0,0,.15.15h2.8c.1,0,.15,0,.15-.16v-2.17a.13.13,0,0,0-.15-.15Z" transform="translate(-51.7 -47.65)"/><path class="cls-1" d="M86.54,117V118H82.19v1.71H81V115.3h5.59v.93H82.19V117Z" transform="translate(-51.7 -47.65)"/><path class="cls-1" d="M94.17,118.26h-1.9v1.39H91V115.3h4.5a1,1,0,0,1,1.09,1.09v.93a.86.86,0,0,1-.91.93l1.22,1.4H95.38Zm-1.9-.94h3a.13.13,0,0,0,.15-.15v-.77c0-.11,0-.16-.15-.16h-3Z" transform="translate(-51.7 -47.65)"/><path class="cls-1" d="M98.71,119.65c-.72,0-1.09-.31-1.09-.93v-2.48c0-.62.37-.94,1.09-.94h3.42c.72,0,1.09.32,1.09.94v2.48q0,.93-1.08.93Zm.31-3.41c-.1,0-.15.05-.15.16v2.17a.13.13,0,0,0,.15.15h2.8c.1,0,.15,0,.15-.16v-2.17a.13.13,0,0,0-.15-.15Z" transform="translate(-51.7 -47.65)"/><path class="cls-1" d="M104.22,115.3h4.5a1,1,0,0,1,1.09,1.09v2.33c0,.62-.36.93-1.09.93h-4.5Zm1.24,3.42h3a.14.14,0,0,0,.16-.15V116.4a.14.14,0,0,0-.16-.16h-3Z" transform="translate(-51.7 -47.65)"/><path class="cls-1" d="M114,118.26h-1.9v1.39h-1.24V115.3h4.5a1,1,0,0,1,1.09,1.09v.93a.85.85,0,0,1-.9.93l1.21,1.4h-1.55Zm-1.9-.94h3a.13.13,0,0,0,.15-.15v-.77c0-.11,0-.16-.15-.16h-3Z" transform="translate(-51.7 -47.65)"/><path class="cls-1" d="M118.65,115.3v4.35H117.4V115.3Z" transform="translate(-51.7 -47.65)"/><path class="cls-1" d="M125.24,119.65h-4.5c-.73,0-1.09-.31-1.09-.93v-2.33a1,1,0,0,1,1.09-1.09h4.5v.94h-4.19a.14.14,0,0,0-.16.16v2.17c0,.1,0,.15.16.15h3v-1.24h1.24Z" transform="translate(-51.7 -47.65)"/><path class="cls-1" d="M127.33,119.65c-.72,0-1.09-.31-1.09-.93v-2.48c0-.62.37-.94,1.09-.94h3.42c.73,0,1.09.32,1.09.94v2.48c0,.62-.37.93-1.09.93Zm.31-3.41c-.1,0-.15.05-.15.16v2.17a.13.13,0,0,0,.15.15h2.8a.14.14,0,0,0,.16-.16v-2.17a.14.14,0,0,0-.16-.15Z" transform="translate(-51.7 -47.65)"/><path class="cls-1" d="M139.46,118.26h-1.89v1.39h-1.24V115.3h4.5a1,1,0,0,1,1.09,1.09v.93a.86.86,0,0,1-.91.93l1.22,1.4h-1.55Zm-1.89-.94h3a.14.14,0,0,0,.16-.15v-.77a.14.14,0,0,0-.16-.16h-3Z" transform="translate(-51.7 -47.65)"/><path class="cls-1" d="M148.51,119.65H144c-.73,0-1.09-.31-1.09-.93v-2.48c0-.62.36-.94,1.09-.94h3.41c.73,0,1.09.32,1.09.94v1.08c0,.63-.36.94-1.09.94h-3.26v.31a.14.14,0,0,0,.15.16h4.19Zm-1.4-2.32a.14.14,0,0,0,.16-.16v-.78c0-.1-.05-.15-.16-.15h-2.79c-.11,0-.16.05-.16.15v.93Z" transform="translate(-51.7 -47.65)"/><path class="cls-1" d="M150.76,115.3v4.35h-1.25V115.3Z" transform="translate(-51.7 -47.65)"/><path class="cls-1" d="M152.85,118c-.73,0-1.09-.32-1.09-.94v-.77c0-.62.36-.94,1.09-.94h4.5v.94h-4.2c-.1,0-.15.05-.15.16v.46a.13.13,0,0,0,.15.15h3.11c.73,0,1.09.31,1.09.94v.77c0,.62-.36.93-1.09.93h-4.5v-.93H156a.14.14,0,0,0,.16-.16v-.46c0-.1-.05-.15-.16-.15Z" transform="translate(-51.7 -47.65)"/><path class="cls-2" d="M92.64,80.89c.82,0,1.54,0,2.26-.1a.6.6,0,0,0,.31-.17c.46-.37.89-.76,1.36-1.11a.67.67,0,0,1,1,.13s.06.06.07.1c.3.85.94.93,1.77,1,3.83.16,7.66.37,11.49.66,1.74.12,3.47.46,5.21.71.67.1,1.35.23,2,.34l.5.09-.37-.64q-2.13-3.56-4.25-7.11c-.65-1.1-1.23-2.24-2-3.27a19.23,19.23,0,0,0-2-2c-2.34-2.36-4.71-4.69-7-7.08A39.3,39.3,0,0,1,98.63,57a15.5,15.5,0,0,1-2.25-4.3,2.39,2.39,0,0,1,1-2.89A11.58,11.58,0,0,0,98.43,49a.84.84,0,0,1,.89-.08,5.15,5.15,0,0,1,2.19,1.51,45.13,45.13,0,0,1,5,6.82c1.48,2.41,2.94,4.83,4.36,7.28.87,1.49,1.69,3,2.47,4.58a8.8,8.8,0,0,0,2.29,2.53c2,1.79,4,3.51,6,5.35,1.49,1.41,2.91,2.9,4.25,4.45a21.69,21.69,0,0,1,1.86,2.84,1,1,0,0,0,.63.56c.67.17,1.31.42,2,.55a5.66,5.66,0,0,0,1.59.06,28.86,28.86,0,0,1,5.42,0,1.07,1.07,0,0,0,.81-.3A12.69,12.69,0,0,1,139.69,84c.61-.36,1.09-.13,1.26.56.08.35.07.73.13,1.09a.7.7,0,0,0,.23.42,19.41,19.41,0,0,1,1.75,1.13,3,3,0,0,1,.71,1.12.6.6,0,0,0,.5.35,6.66,6.66,0,0,0,3-.2c1-.26,2.09-.52,3.14-.75,1.59-.36,3.18-.72,4.78-1a8.18,8.18,0,0,1,1.72-.06c.61,0,.89.58.47,1a8.69,8.69,0,0,1-1.76,1.5,11.78,11.78,0,0,1-4.68,1.4,29.21,29.21,0,0,1-5.61.2,6.89,6.89,0,0,0-1.35.15.53.53,0,0,0-.33.22,8.59,8.59,0,0,1-2.25,2.63,17,17,0,0,0,3.81-1c1.23-.47,2.43-1,3.64-1.5l.12.11c-.09.14-.15.33-.27.42-.82.56-1.63,1.14-2.5,1.62a20.29,20.29,0,0,1-4.43,1.8,9.73,9.73,0,0,1-3.13.56,3.75,3.75,0,0,0-1.12.36c-1,.35-2,.73-3,1a33.13,33.13,0,0,1-8.12,1.06c-1.63,0-3.26,0-4.89,0-.27,0-.46,0-.42.37a3.83,3.83,0,0,1-1,2.84,13.23,13.23,0,0,1-3.79,3.15,13.68,13.68,0,0,1-4.1,1.65,15.45,15.45,0,0,1-4.74.47c-1.09-.1-2.18-.15-3.27-.27a16.94,16.94,0,0,1-2-.43,15.34,15.34,0,0,1-1.87-.54,21.09,21.09,0,0,1-2.29-1c-.66-.34-1.25-.8-1.89-1.16a9.64,9.64,0,0,1-2.84-2.85,1.07,1.07,0,0,1-.18-.41,6.05,6.05,0,0,1,.31-3.94,13.66,13.66,0,0,1,1.31-2c.08-.12.17-.23.32-.43l-1.12.17c-1.91.33-3.82.7-5.74,1-3,.46-5.91.86-8.86,1.31a1.91,1.91,0,0,0-.84.39,3,3,0,0,1-2.64.81,8.4,8.4,0,0,1-.93-.4,1.3,1.3,0,0,0-.52-.16c-2.43.2-4.85.44-7.29.61a79.88,79.88,0,0,1-12-.19,15.37,15.37,0,0,1-2.41-.49c-1.16-.29-1.27-1.34-.61-2.26a10.1,10.1,0,0,1,2.37-2.24,44,44,0,0,1,9-5c1.82-.78,3.73-1.37,5.61-2,.57-.2.61-.18.49-.75a21.11,21.11,0,0,1,0-5.94,11.9,11.9,0,0,1,.75-3.1,19.89,19.89,0,0,1,1.48-3A21.46,21.46,0,0,1,76.57,67,18.89,18.89,0,0,1,81,64.16a9.37,9.37,0,0,1,5.08-.84,8.66,8.66,0,0,1,2.33.63,5.17,5.17,0,0,1,1.19,1,9,9,0,0,1,2.2,3.5A15.42,15.42,0,0,1,92.9,73c.14,1.49.1,3,.11,4.51a17.48,17.48,0,0,1-.1,2A11.94,11.94,0,0,1,92.64,80.89Zm-19.38,3,2.23-.5c1.14-.25,2.29-.51,3.44-.74,1-.2,2-.37,3-.53,1.48-.25,3-.5,4.45-.7,1.14-.14,2.29-.2,3.44-.31a.49.49,0,0,0,.32-.31c.1-1.9.23-3.81.24-5.7A15.32,15.32,0,0,0,90,72.21a12.45,12.45,0,0,0-1.87-4.78,4.42,4.42,0,0,0-2.5-2A8.58,8.58,0,0,0,78,66.91a17.56,17.56,0,0,0-4.64,5.32,12.77,12.77,0,0,0-1.6,5,17.56,17.56,0,0,0,0,5.17c.12.59.17,1.2.25,1.81l.11,0L73,82.56l.13,0C73.14,83,73.2,83.47,73.26,83.94Zm32.65,7.81a13.11,13.11,0,0,0-1.68.09c-2.26.45-4.53.93-6.79,1.4a1.25,1.25,0,0,0-.58.27A4.25,4.25,0,0,0,95.73,97,3.23,3.23,0,0,0,96,98.3a7,7,0,0,0,1.45,1.75,14.41,14.41,0,0,0,2.86,1.91,16,16,0,0,0,4.34,1.65c1.08.17,2.15.48,3.23.54a24.7,24.7,0,0,0,4.63,0,14.76,14.76,0,0,0,3.66-.91,3.65,3.65,0,0,0,2.07-1.62,5.21,5.21,0,0,0,.3-2.89c0-.42-.21-.57-.64-.58-1.36,0-2.73,0-4.07-.18a3.08,3.08,0,0,0-2.58.85,3.33,3.33,0,0,1-2.88.81A3.8,3.8,0,0,1,105.73,98c-.57-.95-1.4-1-2.26-1.16a3,3,0,0,1-.81-.28c-.26-.13-.35-.34-.11-.59s.56-.59.86-.85c.52-.44,1.21-.72,1.27-1.54a.55.55,0,0,1,.13-.25ZM73.78,95.9c-.36-.59-.69-1.1-1-1.62a21.82,21.82,0,0,1-2-4.78c-.28-.85-.5-1.73-.74-2.6-.06-.22-.13-.34-.39-.26-.84.25-1.7.44-2.52.72-2.3.8-4.63,1.54-6.85,2.57a30.66,30.66,0,0,0-5.19,2.75,10.68,10.68,0,0,0-1.82,1.67c-.43.48-.19,1,.43,1.2a7.13,7.13,0,0,0,1.27.31c1.36.14,2.73.31,4.09.34,2.75.08,5.5.12,8.25.08,1.81,0,3.61-.19,5.41-.29Zm15.8-12.6a101.51,101.51,0,0,0-16,2.36,15.42,15.42,0,0,0,1.33,2.55,11.51,11.51,0,0,0,3.75,3.22,7,7,0,0,0,3.28.7c.28,0,.38-.09.36-.39,0-.5,0-1,0-1.52,0-1.26,0-2.52-.09-3.77,0-.13-.19-.25-.26-.38s-.12-.3-.07-.37a3.46,3.46,0,0,1,1.68-1.24.48.48,0,0,1,.64.36,7.76,7.76,0,0,1,.36,1.76,1.52,1.52,0,0,0,1,1.54A11.44,11.44,0,0,1,87,89,22.3,22.3,0,0,0,89.58,83.3Zm10.35-.15.42.5,2.79,3.55c.09.11.3.22.4.18.65-.21,1.28-.47,1.92-.7.17-.06.36-.09.54-.14,1.14-.27,2.37-.19,3.33-1a1.77,1.77,0,0,1,.17-.12.57.57,0,0,1,.89.14,1.87,1.87,0,0,1,.24.38,3.5,3.5,0,0,0,1.21,1.35c.47.34.85.79,1.28,1.17a.56.56,0,0,0,.44.11c.39-.15.75-.38,1.15-.54a1,1,0,0,1,.66-.08c.55.29,1,0,1.54-.11,0,0,.11-.1.15-.16a4.8,4.8,0,0,1,2.36-1.88c.28-.11.58-.19.86-.28A93.67,93.67,0,0,0,99.93,83.15Zm37.95,6.63-2.55-.61a.59.59,0,0,0-.28.06,3.26,3.26,0,0,1-3.12-.36c-.34-.25-.66-.53-1-.77a.83.83,0,0,0-1.22.06,3,3,0,0,1-.7.49.51.51,0,0,0-.39.5,1.71,1.71,0,0,1-.7,1.25c-.42.33-.82.69-1.26,1a3.13,3.13,0,0,1-1.12.46,7.36,7.36,0,0,1-4-.34,14.7,14.7,0,0,1-3.68-1.93c-.17-.13-.37-.33-.54-.33a9.3,9.3,0,0,0-1.3.23c0,.55,0,1,.07,1.47a.83.83,0,0,0,.25.49c.6.55,1.22,1.09,1.85,1.61a.9.9,0,0,0,.54.23c1.3,0,2.61-.07,3.9-.15,2.14-.14,4.26-.31,6.4-.47,1.42-.1,2.84-.18,4.26-.3.17,0,.44-.09.49-.21a4.06,4.06,0,0,1,1.41-1.5,1.31,1.31,0,0,1,1.84-.16ZM98.66,88.64c-.14-.57,0-1.15-.39-1.68-.88-1.16-1.7-2.38-2.5-3.59a.65.65,0,0,0-.66-.35c-.91,0-1.83.07-2.75.09a.59.59,0,0,0-.62.48,4.31,4.31,0,0,1-.3.71c-.2.46-.4.91-.59,1.37a3.29,3.29,0,0,0,.65-.33c.23-.12.38,0,.5.19a8.93,8.93,0,0,0,.61,1.09,4.59,4.59,0,0,0,2.2,1.69c.58.2,1.21.27,1.77.5a.85.85,0,0,0,.92-.12A.84.84,0,0,1,98.66,88.64ZM120,95.12c.2.37.34.66.52.94a.56.56,0,0,0,.37.26c1.67,0,3.34.12,5,.06a54.26,54.26,0,0,0,7.53-.64c.58-.11,1.17-.2,1.76-.29v-.12c-.14-.07-.29-.12-.43-.2-.48-.29-1-.6-1.08-1.2-.06-.41-.2-.44-.55-.39-1.6.26-3.19.52-4.8.71-2.61.3-5.23.54-7.85.81Zm-40.41-.65a2.07,2.07,0,0,1,.09.43c-.06.47.21.48.55.44.69-.11,1.39-.19,2.08-.29,4-.57,7.92-1.23,11.84-2.11a.36.36,0,0,0,.26-.2,5.4,5.4,0,0,0,.15-.74c-.37.13-.71.37-1,.32s-.5-.43-.71-.64a7.83,7.83,0,0,1-1.55,1.08,4.86,4.86,0,0,1-3.3,0,2.18,2.18,0,0,1-1.21-.93c-.22-.38-.35-.38-.7-.12a19.47,19.47,0,0,1-2,1.43,13.67,13.67,0,0,1-2.47,1A13.18,13.18,0,0,1,79.57,94.47Zm37.75-18.55-.09.08.24.46c1.14,2.1,2.27,4.2,3.43,6.29a.87.87,0,0,0,.5.35c.95.25,1.91.47,2.87.69l.86.21C123,80.74,120.05,78.43,117.32,75.92Zm4.35,12.55a2.16,2.16,0,0,0,1.3,1.29,8.5,8.5,0,0,0,3.38.44c.15,0,.4-.18.41-.28,0-.66,0-1.33,0-2,0-.23-.15-.27-.37-.23l-2.68.4C123.05,88.21,122.38,88.34,121.67,88.47ZM136.29,93a1.46,1.46,0,0,0,.18.18,5.94,5.94,0,0,0,3.1.62.87.87,0,0,0,.33-.14,4.08,4.08,0,0,0,1.82-1.94,1.68,1.68,0,0,0,.05-.45c-.08,0-.1,0-.13,0a19.15,19.15,0,0,1-4,.22c-.09,0-.28.21-.29.33a1.08,1.08,0,0,1-.5.89Zm-29.49.68,1.86-.15,2.74-.14a.91.91,0,0,0,.3-.14c0-.08-.1-.22-.16-.23-.41,0-.59-.35-.82-.62a2.2,2.2,0,0,0-.61-.64,2.87,2.87,0,0,0-2.63,0,1.36,1.36,0,0,0-.61.77A5,5,0,0,0,106.8,93.72ZM99.47,52.63c.8,2.08,6.32,9.39,7.14,9.85A63.28,63.28,0,0,0,99.47,52.63ZM74.57,91.52l-.06,0a.74.74,0,0,0,0,.14,9.89,9.89,0,0,0,2.55,3.45,2.31,2.31,0,0,0,1,.31c.09,0,.29-.15.33-.27a2.19,2.19,0,0,0,.08-.72.37.37,0,0,0-.2-.28,7.93,7.93,0,0,1-2.74-1.66C75.21,92.23,74.9,91.86,74.57,91.52Zm27.25-.25a8,8,0,0,0-.61-.59,1,1,0,0,0-1.3,0c-.41.29-.81.6-1.21.9a6.09,6.09,0,0,0-.44.44l0,.08Zm15.55,4.87c-.23-.37-.42-.79-.84-.82a12.09,12.09,0,0,0-2,.08c-.14,0-.26.28-.38.44,0,0,.13.17.2.17Zm-11.69-7.52a1.82,1.82,0,0,0,1.39,1.06c.7.17.69.16.88-.53.09-.32,0-.46-.33-.47C107,88.65,106.39,88.64,105.68,88.62ZM90.29,90a1,1,0,0,0-1.37-.84.35.35,0,0,0-.14.25c0,.12.07.32.14.34C89.36,89.81,89.82,89.87,90.29,90Zm-6.15,1.82,1.11-.68-.72-.42Zm6.37-.52c0-.35,0-.58-.06-.91l-.72.62Zm28.42-4.12c0,.08,0,.17,0,.26l1-.2,0-.18Zm17.56,5.1a1.55,1.55,0,0,0,0-.21l-.72-.34c.05.26.05.48.11.51A2.16,2.16,0,0,0,136.49,92.23Zm16.92-3.66s0,.08,0,.12L155,88.4c0-.05,0-.1,0-.14Z" transform="translate(-51.7 -47.65)"/><path class="cls-2" d="M150.42,93.26a1.2,1.2,0,0,1-.51,1.16,5.42,5.42,0,0,1-2.15,1.43,1.5,1.5,0,0,1-.73,0c-.26-.06-.24-.28-.12-.45a3.18,3.18,0,0,1,.57-.64,17.54,17.54,0,0,1,1.86-1.34A3.19,3.19,0,0,1,150.42,93.26Z" transform="translate(-51.7 -47.65)"/><path class="cls-1" d="M186.74,118.87c0,.07,0,.1.09.1h2.53v.56h-2.71c-.44,0-.66-.19-.66-.56v-1.5c0-.37.22-.56.66-.56h2.71v.56h-2.53c-.06,0-.09,0-.09.1Z" transform="translate(-51.7 -47.65)"/><path class="cls-1" d="M190.39,119.53c-.44,0-.66-.19-.66-.56v-1.5c0-.37.22-.56.66-.56h2.06c.43,0,.65.19.65.56V119c0,.37-.22.56-.65.56Zm.18-2.06c-.06,0-.09,0-.09.1v1.3c0,.07,0,.1.09.1h1.69c.06,0,.09,0,.09-.1v-1.3c0-.07,0-.1-.09-.1Z" transform="translate(-51.7 -47.65)"/><path class="cls-1" d="M194.22,119.53h-.75v-2.62h2.72c.43,0,.65.19.65.56v2.06h-.75v-2c0-.07,0-.1-.09-.1h-1.78Z" transform="translate(-51.7 -47.65)"/><path class="cls-1" d="M198,118.87c0,.07,0,.1.1.1h2.52v.56h-2.71c-.44,0-.65-.19-.65-.56v-1.5c0-.37.21-.56.65-.56h2.71v.56h-2.52c-.07,0-.1,0-.1.1Z" transform="translate(-51.7 -47.65)"/><path class="cls-1" d="M204.32,119.53h-2.71c-.43,0-.65-.19-.65-.56v-1.5c0-.37.22-.56.65-.56h2.06c.44,0,.65.19.65.56v.66c0,.37-.21.56-.65.56h-2v.19a.08.08,0,0,0,.09.09h2.52Zm-.84-1.4a.09.09,0,0,0,.1-.09v-.47c0-.07,0-.1-.1-.1H201.8c-.06,0-.1,0-.1.09v.56Z" transform="translate(-51.7 -47.65)"/><path class="cls-1" d="M205.45,118.69v.84h-.75v-2.62h2.71a.58.58,0,0,1,.65.66v.56c0,.37-.21.56-.65.56Zm0-.56h1.78c.06,0,.09,0,.09-.1v-.46c0-.07,0-.1-.09-.1h-1.78Z" transform="translate(-51.7 -47.65)"/><path class="cls-1" d="M211.43,116.91v.56h-1.12v2.06h-.75v-2.06h-1.12v-.57Z" transform="translate(-51.7 -47.65)"/><path class="cls-1" d="M228.64,116.91h2.72a.58.58,0,0,1,.65.66V119c0,.37-.22.56-.65.56h-2.72Zm.75,2.06h1.78c.06,0,.09,0,.09-.1v-1.3c0-.07,0-.1-.09-.1h-1.78Z" transform="translate(-51.7 -47.65)"/><path class="cls-1" d="M235.75,119.53H233c-.44,0-.65-.19-.65-.56v-1.5c0-.37.21-.56.65-.56h2.06c.43,0,.65.19.65.56v.66c0,.37-.22.56-.65.56h-2v.19c0,.06,0,.09.1.09h2.52Zm-.84-1.4A.08.08,0,0,0,235,118v-.47c0-.07,0-.1-.09-.1h-1.68c-.07,0-.1,0-.1.09v.56Z" transform="translate(-51.7 -47.65)"/><path class="cls-1" d="M236.78,118.5c-.44,0-.66-.19-.66-.56v-.47c0-.37.22-.56.66-.56h2.71v.56H237c-.07,0-.1,0-.1.1v.28c0,.06,0,.09.1.09h1.87c.43,0,.65.19.65.56V119c0,.37-.22.56-.65.56h-2.72V119h2.53c.06,0,.09,0,.09-.1v-.28a.08.08,0,0,0-.09-.09Z" transform="translate(-51.7 -47.65)"/><path class="cls-1" d="M240.62,116.91v2.62h-.75v-2.62Z" transform="translate(-51.7 -47.65)"/><path class="cls-1" d="M244.36,119.53h-2.72c-.43,0-.65-.19-.65-.56v-1.4a.58.58,0,0,1,.65-.66h2.72v.56h-2.53c-.06,0-.09,0-.09.1v1.3c0,.07,0,.1.09.1h1.78v-.75h.75Z" transform="translate(-51.7 -47.65)"/><path class="cls-1" d="M245.48,119.53h-.75v-2.62h2.71c.44,0,.66.19.66.56v2.06h-.75v-2c0-.07,0-.1-.09-.1h-1.78Z" transform="translate(-51.7 -47.65)"/><path class="cls-1" d="M251.84,119.53h-2.71c-.44,0-.66-.19-.66-.56v-1.5c0-.37.22-.56.66-.56h2.06c.43,0,.65.19.65.56v.66c0,.37-.22.56-.65.56h-2v.19c0,.06,0,.09.1.09h2.52Zm-.84-1.4a.08.08,0,0,0,.09-.09v-.47c0-.07,0-.1-.09-.1h-1.68c-.07,0-.1,0-.1.09v.56Z" transform="translate(-51.7 -47.65)"/><path class="cls-1" d="M254.1,118.69H253v.84h-.75v-2.62h2.72a.58.58,0,0,1,.65.66v.56c0,.34-.18.52-.54.55l.73.85h-.94Zm-1.14-.56h1.78c.06,0,.09,0,.09-.1v-.46c0-.07,0-.1-.09-.1H253Z" transform="translate(-51.7 -47.65)"/><path class="cls-1" d="M220.16,115.82c.08,0-.23-.34-.24-.33L201.41,91.93c1.06-.61,2-1.26,3-1.73,3.93-1.77,6.77-4.92,9.83-7.78.39-.37.35-.73-.09-1.11-1.23-1-2.4-2.18-3.65-3.21-3.18-2.64-6.39-5.23-9.58-7.85-2.82-2.32-5.58-4.7-8.46-7-5.38-4.2-10.82-8.32-16.23-12.46-1.41-1.08-2.83-2.12-4.25-3.19a.76.76,0,0,0,.11.74c1.81,1.94,3.55,4,5.46,5.79,4.16,4,8.48,7.78,12.61,11.79,4.33,4.22,8.52,8.58,12.76,12.89.62.63,1.21,1.3,1.81,2s.57,1.28-.1,2a20.92,20.92,0,0,1-7.3,4.47.91.91,0,0,1-1.3-.33c-.62-.87-.67-1-1.5-2.13.1,1.47.11,2.67.14,3.4.11,3.1.18,5.12.32,7.76a1,1,0,0,0,.56.82,11.57,11.57,0,0,1,4.26,3c3.13,3.07,6.32,6.09,9.43,9.18s5.94,6,8.92,9.07c-4.67,6-10,11.34-12.67,15.67l14.25-13.07,2.3-2.32Z" transform="translate(-51.7 -47.65)"/><path class="cls-1" d="M181,79.43c.76-3.25,1.52-6.5,2.25-9.64l7.41,2.52a3.78,3.78,0,0,0,1.18.29,2.22,2.22,0,0,1,2.49,2.24c.1.71.2,1.25-.43,1.77a2.77,2.77,0,0,0-.85,2.57c.22,3.61.25,7.23.4,10.84.15,4,.13,8.06.6,12a15.54,15.54,0,0,0,4.32,8.43c.53.59,1,1.21,1.56,1.81.08.28,0,.28-.17.22a21.2,21.2,0,0,0-2.25-1.2c-3.47-1.34-6.95-2.66-10.45-3.9a6.57,6.57,0,0,0-2.24.11c-1.73-3.31-2.37-7.22-3.11-11.12.82,1.45,1.6,2.93,2.48,4.34A14.3,14.3,0,0,0,186,103c.64.67,1.21.47,1.39-.44a6.74,6.74,0,0,0,.1-1.55q-.56-11.55-1.17-23.1a8.37,8.37,0,0,0-.56-2.46c-.39-1-1.07-1.12-1.73-.27s-1.37,2-2,3c-.28.43-.55.87-.82,1.3C181,79.7,180.92,79.51,181,79.43Z" transform="translate(-51.7 -47.65)"/><path class="cls-1" d="M220,115.88s.37-.4.38-.39l18.51-23.56c-1.07-.61-2-1.26-3-1.73-3.93-1.77-6.77-4.92-9.83-7.78-.39-.37-.36-.73.09-1.11,1.23-1,2.4-2.18,3.65-3.21,3.18-2.64,6.39-5.23,9.58-7.85,2.82-2.32,5.58-4.7,8.46-7C253.16,59.1,258.59,55,264,50.84c1.41-1.08,2.83-2.12,4.25-3.19a.79.79,0,0,1-.11.74c-1.81,1.94-3.55,4-5.46,5.79-4.16,4-8.48,7.78-12.61,11.79-4.33,4.22-8.52,8.58-12.77,12.89-.62.63-1.2,1.3-1.8,2s-.58,1.28.1,2a20.92,20.92,0,0,0,7.3,4.47.92.92,0,0,0,1.3-.33c.62-.87.67-1,1.5-2.13-.1,1.47-.11,2.67-.14,3.4-.11,3.1-.18,5.12-.32,7.76a1,1,0,0,1-.57.82,11.61,11.61,0,0,0-4.25,3c-3.13,3.07-6.32,6.09-9.43,9.18s-5.94,6-8.92,9.07c4.66,6,10,11.34,12.67,15.67L220.5,120.61l-2.42-2.31Z" transform="translate(-51.7 -47.65)"/><path class="cls-1" d="M259.31,79.43c-.76-3.25-1.52-6.5-2.26-9.64l-7.4,2.52a3.85,3.85,0,0,1-1.18.29A2.22,2.22,0,0,0,246,74.84c-.1.71-.2,1.25.43,1.77a2.77,2.77,0,0,1,.85,2.57c-.22,3.61-.25,7.23-.4,10.84-.16,4-.13,8.06-.6,12a15.54,15.54,0,0,1-4.32,8.43c-.53.59-1,1.21-1.56,1.81-.08.28,0,.28.17.22a21.2,21.2,0,0,1,2.25-1.2c3.47-1.34,6.94-2.66,10.45-3.9a6.58,6.58,0,0,1,2.24.11c1.72-3.31,2.37-7.22,3.11-11.12-.82,1.45-1.6,2.93-2.48,4.34a14.3,14.3,0,0,1-1.79,2.24c-.64.67-1.21.47-1.39-.44a6.22,6.22,0,0,1-.1-1.55q.56-11.55,1.17-23.1a8.37,8.37,0,0,1,.56-2.46c.39-1,1.07-1.12,1.73-.27s1.37,2,2,3c.28.43.55.87.82,1.3C259.28,79.7,259.36,79.51,259.31,79.43Z" transform="translate(-51.7 -47.65)"/></svg>